<svg width="1445" height="279" viewBox="0 0 1445 279" fill="none" xmlns="http://www.w3.org/2000/svg">
<path d="M213.525 55.5706L195.863 87.5198C195.863 87.5198 203.719 95.3597 205.29 116.889C206.977 140.008 198.688 157.371 195.863 163.622C190.977 174.437 183.998 184.451 173.638 195.572C163.288 206.681 158.854 210.058 140.002 220.873C136.132 223.093 112.174 231.452 104.977 232.284C87.8113 234.269 79.9727 234.07 63.0059 231.589C48.0443 229.402 39.951 226.206 26.5918 219.385C15.4111 213.677 0.057002 201.571 0 201.526L6.54883 181.979C6.63083 181.975 33.7409 180.835 50.8018 177.216C70.009 173.142 80.7072 169.948 97.4355 159.654C110.711 151.484 116.857 145.347 127.302 133.856C139.361 120.588 139.976 108.832 152.9 95.7551C161.33 87.2267 176.499 79.7886 176.516 79.7805L187.43 44.4573L213.525 55.5706ZM145.459 133.36L163.716 129.49C163.694 129.53 156.901 141.451 151.61 148.442C146.755 154.856 143.638 158.471 137.72 163.92C131.728 169.437 127.963 171.879 121.249 176.323C114.821 180.579 110.702 182.752 103.687 185.948C94.965 189.92 89.9354 191.362 80.7666 193.587C73.1274 195.441 68.743 196.172 60.9219 196.961C51.7446 197.887 46.5276 197.728 37.3076 197.457C28.7013 197.205 15.3339 195.776 15.2803 195.771C15.339 195.791 28.2942 200.327 36.9102 201.922C47.299 203.845 53.0608 204.13 63.6016 203.41C72.7299 202.788 77.9852 201.791 86.918 199.442C97.3304 196.703 103.064 194.176 112.518 189.024C118.264 185.892 121.393 184.176 126.706 180.49C131.311 177.296 133.727 175.265 138.018 171.659C141.925 168.376 144.129 166.533 147.741 162.928C152.094 158.584 154.478 156.046 158.159 151.12C161.673 146.419 163.214 143.475 166.196 138.42C169.271 133.208 171.165 130.351 173.638 124.827C175.976 119.603 177.055 116.547 178.6 111.035C179.406 108.158 179.809 106.526 180.385 103.593C180.854 101.205 181.182 99.8671 181.377 97.4417L145.459 133.36Z" fill="#F59E0B"/>
<path d="M278.586 204C276.226 204 274.514 203.469 273.452 202.407C272.508 201.344 272.036 199.751 272.036 197.627V90.1624C272.036 87.9199 272.508 86.2675 273.452 85.2053C274.514 84.143 276.226 83.6119 278.586 83.6119H329.751C342.026 83.6119 351.291 86.5626 357.546 92.464C363.92 98.3653 367.107 106.332 367.107 116.365C367.107 122.03 365.69 127.105 362.858 131.59C360.025 136.075 356.071 139.38 350.996 141.504C364.097 145.635 370.648 154.842 370.648 169.123C370.648 175.732 369.113 181.693 366.044 187.004C363.094 192.197 358.609 196.328 352.589 199.397C346.57 202.466 339.134 204 330.282 204H278.586ZM326.564 133.892C332.348 133.892 336.774 132.416 339.842 129.466C343.029 126.515 344.622 122.384 344.622 117.073C344.622 111.289 343.147 107.158 340.196 104.68C337.364 102.083 332.761 100.785 326.387 100.785H294.697V133.892H326.564ZM329.22 186.827C335.711 186.827 340.492 185.175 343.56 181.87C346.629 178.447 348.163 174.08 348.163 168.769C348.163 162.631 346.275 158.028 342.498 154.96C338.839 151.773 333.705 150.179 327.095 150.179H294.697V186.827H329.22ZM394.597 204C392.236 204 390.525 203.469 389.462 202.407C388.518 201.344 388.046 199.751 388.046 197.627V90.1624C388.046 87.9199 388.518 86.2675 389.462 85.2053C390.525 84.143 392.236 83.6119 394.597 83.6119H403.98C406.34 83.6119 408.052 84.143 409.114 85.2053C410.176 86.2675 410.707 87.9199 410.707 90.1624V197.627C410.707 199.751 410.176 201.344 409.114 202.407C408.17 203.469 406.458 204 403.98 204H394.597ZM465.961 206.656C454.394 206.656 445.188 203.174 438.342 196.21C431.497 189.129 428.074 179.214 428.074 166.467C428.074 156.553 430.257 147.819 434.624 140.265C438.991 132.593 445.188 126.692 453.214 122.561C461.358 118.43 470.8 116.365 481.54 116.365C496.53 116.365 509.218 119.905 519.604 126.987V199.22C519.604 200.99 519.191 202.23 518.365 202.938C517.657 203.646 516.359 204 514.47 204H504.733C503.435 204 502.431 203.764 501.723 203.292C501.133 202.702 500.72 201.816 500.484 200.636L499.068 193.732C495.409 198.217 490.865 201.521 485.435 203.646C480.124 205.652 473.633 206.656 465.961 206.656ZM474.459 190.545C480.714 190.545 486.203 188.715 490.924 185.057C495.763 181.398 498.182 176.559 498.182 170.539V136.016C495.704 134.718 493.166 133.833 490.57 133.361C488.091 132.77 485.022 132.475 481.363 132.475C472.039 132.475 464.544 135.426 458.879 141.327C453.214 147.229 450.381 155.373 450.381 165.759C450.381 174.257 452.329 180.513 456.224 184.525C460.236 188.538 466.315 190.545 474.459 190.545ZM584.328 206.656C568.63 206.656 556.356 202.82 547.504 195.148C538.769 187.358 534.402 176.264 534.402 161.864C534.402 152.894 536.409 144.986 540.422 138.141C544.435 131.295 550.159 125.984 557.595 122.207C565.149 118.312 573.942 116.365 583.974 116.365C591.41 116.365 597.724 117.073 602.917 118.489C608.111 119.905 612.95 122.207 617.435 125.394C618.497 126.102 619.028 126.869 619.028 127.695C619.028 128.403 618.733 129.23 618.143 130.174L613.363 138.495C612.655 139.675 612.006 140.265 611.415 140.265C610.825 140.265 609.999 139.911 608.937 139.203C605.278 136.96 601.619 135.308 597.96 134.246C594.419 133.065 590.17 132.475 585.213 132.475C576.361 132.475 569.398 135.131 564.322 140.442C559.247 145.635 556.71 152.776 556.71 161.864C556.71 171.424 559.247 178.624 564.322 183.463C569.398 188.184 576.833 190.545 586.63 190.545C591.587 190.545 595.895 189.955 599.554 188.774C603.213 187.594 606.753 185.883 610.176 183.64C611.12 183.05 611.888 182.755 612.478 182.755C613.186 182.755 613.894 183.345 614.602 184.525L619.736 193.2C620.209 193.791 620.445 194.44 620.445 195.148C620.445 195.974 619.854 196.8 618.674 197.627C613.953 200.695 608.878 202.938 603.449 204.354C598.019 205.888 591.646 206.656 584.328 206.656ZM644.598 204C642.238 204 640.526 203.469 639.464 202.407C638.52 201.344 638.048 199.751 638.048 197.627V90.1624C638.048 87.9199 638.52 86.2675 639.464 85.2053C640.526 84.143 642.238 83.6119 644.598 83.6119H653.981C656.342 83.6119 658.053 84.143 659.116 85.2053C660.178 86.2675 660.709 87.9199 660.709 90.1624V197.627C660.709 199.751 660.178 201.344 659.116 202.407C658.171 203.469 656.46 204 653.981 204H644.598ZM701.96 204C700.661 204 699.717 203.882 699.127 203.646C698.537 203.41 697.888 202.879 697.18 202.053L666.02 166.821C664.958 165.641 664.191 164.579 663.719 163.635C663.247 162.572 663.011 161.274 663.011 159.74C663.011 158.205 663.247 156.966 663.719 156.022C664.191 154.96 664.958 153.838 666.02 152.658L696.117 121.145C696.825 120.318 697.475 119.787 698.065 119.551C698.773 119.197 699.894 119.02 701.428 119.02H717.893C718.72 119.02 719.31 119.256 719.664 119.728C720.136 120.2 720.372 120.791 720.372 121.499C720.372 122.443 720.018 123.269 719.31 123.977L684.078 159.74L720.549 199.043C721.257 199.751 721.611 200.518 721.611 201.344C721.611 202.053 721.375 202.702 720.903 203.292C720.431 203.764 719.782 204 718.956 204H701.96Z" fill="#F59E0B"/>
<path d="M812.822 204C810.462 204 808.75 203.469 807.688 202.407C806.744 201.344 806.272 199.751 806.272 197.627V90.1624C806.272 87.9199 806.744 86.2675 807.688 85.2053C808.75 84.143 810.462 83.6119 812.822 83.6119H863.987C876.262 83.6119 885.527 86.5626 891.783 92.464C898.156 98.3653 901.343 106.332 901.343 116.365C901.343 122.03 899.926 127.105 897.094 131.59C894.261 136.075 890.307 139.38 885.232 141.504C898.333 145.635 904.884 154.842 904.884 169.123C904.884 175.732 903.349 181.693 900.28 187.004C897.33 192.197 892.845 196.328 886.825 199.397C880.806 202.466 873.37 204 864.518 204H812.822ZM860.8 133.892C866.584 133.892 871.01 132.416 874.078 129.466C877.265 126.515 878.858 122.384 878.858 117.073C878.858 111.289 877.383 107.158 874.432 104.68C871.6 102.083 866.997 100.785 860.623 100.785H828.933V133.892H860.8ZM863.456 186.827C869.947 186.827 874.728 185.175 877.796 181.87C880.865 178.447 882.399 174.08 882.399 168.769C882.399 162.631 880.511 158.028 876.734 154.96C873.075 151.773 867.941 150.179 861.331 150.179H828.933V186.827H863.456ZM956.628 206.656C945.061 206.656 935.855 203.174 929.01 196.21C922.164 189.129 918.741 179.214 918.741 166.467C918.741 156.553 920.925 147.819 925.292 140.265C929.659 132.593 935.855 126.692 943.881 122.561C952.025 118.43 961.467 116.365 972.208 116.365C987.197 116.365 999.885 119.905 1010.27 126.987V199.22C1010.27 200.99 1009.86 202.23 1009.03 202.938C1008.32 203.646 1007.03 204 1005.14 204H995.4C994.102 204 993.099 203.764 992.39 203.292C991.8 202.702 991.387 201.816 991.151 200.636L989.735 193.732C986.076 198.217 981.532 201.521 976.103 203.646C970.791 205.652 964.3 206.656 956.628 206.656ZM965.126 190.545C971.381 190.545 976.87 188.715 981.591 185.057C986.43 181.398 988.85 176.559 988.85 170.539V136.016C986.371 134.718 983.833 133.833 981.237 133.361C978.758 132.77 975.689 132.475 972.031 132.475C962.706 132.475 955.212 135.426 949.546 141.327C943.881 147.229 941.048 155.373 941.048 165.759C941.048 174.257 942.996 180.513 946.891 184.525C950.904 188.538 956.982 190.545 965.126 190.545ZM1037.93 204C1035.57 204 1033.86 203.469 1032.8 202.407C1031.74 201.344 1031.2 199.751 1031.2 197.627V123.8C1031.2 122.03 1031.5 120.791 1032.09 120.082C1032.68 119.374 1033.92 119.02 1035.81 119.02H1045.9C1048.49 119.02 1049.85 120.2 1049.97 122.561L1050.32 129.643C1058.35 120.791 1069.86 116.365 1084.85 116.365C1094.41 116.365 1102.08 118.961 1107.86 124.154C1113.76 129.23 1116.71 136.901 1116.71 147.17V197.627C1116.71 199.751 1116.18 201.344 1115.12 202.407C1114.18 203.469 1112.52 204 1110.16 204H1100.78C1098.42 204 1096.71 203.469 1095.65 202.407C1094.58 201.344 1094.05 199.751 1094.05 197.627V148.586C1094.05 142.803 1092.7 138.731 1089.98 136.37C1087.39 133.892 1083.14 132.652 1077.23 132.652C1070.98 132.652 1065.49 134.364 1060.77 137.787C1056.17 141.091 1053.87 145.399 1053.87 150.711V197.627C1053.87 199.751 1053.33 201.344 1052.27 202.407C1051.33 203.469 1049.62 204 1047.14 204H1037.93ZM1168.42 206.656C1156.85 206.656 1147.65 203.174 1140.8 196.21C1133.96 189.129 1130.53 179.214 1130.53 166.467C1130.53 156.553 1132.72 147.819 1137.08 140.265C1141.45 132.593 1147.65 126.692 1155.67 122.561C1163.82 118.43 1173.26 116.365 1184 116.365C1198.99 116.365 1211.68 119.905 1222.06 126.987V199.22C1222.06 200.99 1221.65 202.23 1220.82 202.938C1220.12 203.646 1218.82 204 1216.93 204H1207.19C1205.89 204 1204.89 203.764 1204.18 203.292C1203.59 202.702 1203.18 201.816 1202.94 200.636L1201.53 193.732C1197.87 198.217 1193.32 201.521 1187.9 203.646C1182.58 205.652 1176.09 206.656 1168.42 206.656ZM1176.92 190.545C1183.17 190.545 1188.66 188.715 1193.38 185.057C1198.22 181.398 1200.64 176.559 1200.64 170.539V136.016C1198.16 134.718 1195.63 133.833 1193.03 133.361C1190.55 132.77 1187.48 132.475 1183.82 132.475C1174.5 132.475 1167 135.426 1161.34 141.327C1155.67 147.229 1152.84 155.373 1152.84 165.759C1152.84 174.257 1154.79 180.513 1158.68 184.525C1162.7 188.538 1168.77 190.545 1176.92 190.545ZM1249.72 204C1247.36 204 1245.65 203.469 1244.59 202.407C1243.53 201.344 1243 199.751 1243 197.627V123.8C1243 122.03 1243.29 120.791 1243.88 120.082C1244.47 119.374 1245.71 119.02 1247.6 119.02H1257.69C1260.29 119.02 1261.64 120.2 1261.76 122.561L1262.12 129.643C1270.14 120.791 1281.65 116.365 1296.64 116.365C1306.2 116.365 1313.87 118.961 1319.66 124.154C1325.56 129.23 1328.51 136.901 1328.51 147.17V197.627C1328.51 199.751 1327.98 201.344 1326.91 202.407C1325.97 203.469 1324.32 204 1321.96 204H1312.57C1310.21 204 1308.5 203.469 1307.44 202.407C1306.38 201.344 1305.85 199.751 1305.85 197.627V148.586C1305.85 142.803 1304.49 138.731 1301.77 136.37C1299.18 133.892 1294.93 132.652 1289.03 132.652C1282.77 132.652 1277.28 134.364 1272.56 137.787C1267.96 141.091 1265.66 145.399 1265.66 150.711V197.627C1265.66 199.751 1265.13 201.344 1264.06 202.407C1263.12 203.469 1261.41 204 1258.93 204H1249.72ZM1380.21 206.656C1368.65 206.656 1359.44 203.174 1352.59 196.21C1345.75 189.129 1342.33 179.214 1342.33 166.467C1342.33 156.553 1344.51 147.819 1348.88 140.265C1353.24 132.593 1359.44 126.692 1367.47 122.561C1375.61 118.43 1385.05 116.365 1395.79 116.365C1410.78 116.365 1423.47 119.905 1433.86 126.987V199.22C1433.86 200.99 1433.44 202.23 1432.62 202.938C1431.91 203.646 1430.61 204 1428.72 204H1418.99C1417.69 204 1416.68 203.764 1415.98 203.292C1415.39 202.702 1414.97 201.816 1414.74 200.636L1413.32 193.732C1409.66 198.217 1405.12 201.521 1399.69 203.646C1394.38 205.652 1387.89 206.656 1380.21 206.656ZM1388.71 190.545C1394.97 190.545 1400.45 188.715 1405.18 185.057C1410.02 181.398 1412.43 176.559 1412.43 170.539V136.016C1409.96 134.718 1407.42 133.833 1404.82 133.361C1402.34 132.77 1399.27 132.475 1395.62 132.475C1386.29 132.475 1378.8 135.426 1373.13 141.327C1367.47 147.229 1364.63 155.373 1364.63 165.759C1364.63 174.257 1366.58 180.513 1370.48 184.525C1374.49 188.538 1380.57 190.545 1388.71 190.545Z" fill="white"/>
</svg>
